<svg width="236" height="40" viewBox="0 0 236 40" fill="none" xmlns="http://www.w3.org/2000/svg">
<path d="M21.2032 39.998L21.1833 34.6408C16.7386 34.6185 12.9789 33.0813 9.90419 30.0293C7.51405 27.6568 6.07946 24.9795 5.60041 21.9973L0 22.0181C0.599355 26.2807 2.56942 30.07 5.9102 33.3861C8.48243 35.9394 11.3871 37.7766 14.6241 38.898C16.7965 39.6641 18.9895 40.0308 21.2032 39.998Z" fill="#1967D2"/>
<path d="M26.0156 25.8166L27.6965 28.3104C26.4833 29.3094 25.0899 30.0083 23.5165 30.4071C21.6387 30.8942 19.6915 30.9414 17.6749 30.5487C14.5381 29.9379 12.1127 28.3933 10.3989 25.9148C8.71005 23.4412 8.15647 20.7107 8.73821 17.7232C9.31995 14.7357 10.8749 12.3899 13.4031 10.6858C15.9362 8.95681 18.8832 8.41954 22.2442 9.074C24.2358 9.46182 25.9808 10.2538 27.4792 11.45C28.6833 12.3994 29.6117 13.5211 30.2643 14.8152L27.7674 16.4982C26.403 14.0414 24.3331 12.5428 21.5577 12.0023C19.2423 11.5515 17.155 11.9203 15.2957 13.1086C13.4412 14.272 12.3007 15.9492 11.8741 18.14C11.4475 20.3309 11.8533 22.3608 13.0914 24.2298C14.3295 26.0988 16.1312 27.2636 18.4963 27.7241C21.1979 28.2502 23.7044 27.6144 26.0156 25.8166Z" fill="#1A73E8"/>
<path d="M29.9184 9.86619C27.3322 7.29907 24.3821 5.82908 21.0682 5.45624L21.048 0C25.7531 0.370206 30.0094 2.44503 33.8169 6.22447C36.3574 8.74618 38.1368 11.6218 39.1552 14.8512C39.913 17.2042 40.1917 19.5437 39.9914 21.8698L34.6405 21.8896C34.8694 17.2261 33.2954 13.2183 29.9184 9.86619Z" fill="#4285F4"/>
<mask id="path-4-outside-1_130_5533" maskUnits="userSpaceOnUse" x="48.5654" y="8.04297" width="187" height="24" fill="black">
<rect fill="white" x="48.5654" y="8.04297" width="187" height="24"/>
<path d="M70.1099 26.6199C67.8652 29.5113 64.7835 30.957 60.8649 30.957C57.5549 30.957 54.8442 29.9108 52.7327 27.8183C50.6212 25.7258 49.5654 23.0817 49.5654 19.8859C49.5654 17.9075 50.0505 16.0813 51.0207 14.4074C52.0098 12.7334 53.37 11.4208 55.101 10.4697C56.8321 9.51853 58.6963 9.04297 60.6937 9.04297C62.7101 9.04297 64.5077 9.43293 66.0866 10.2129C67.6845 10.9738 69.0161 12.0961 70.0813 13.5799L68.1981 15.0351C66.2197 12.6382 63.7753 11.4398 60.8649 11.4398C58.487 11.4398 56.4326 12.2768 54.7015 13.9508C52.9895 15.6248 52.1335 17.6792 52.1335 20.1141C52.1335 22.53 52.9705 24.5559 54.6445 26.1919C56.3375 27.8088 58.5251 28.6173 61.2073 28.6173C63.8895 28.6173 66.2197 27.4664 68.1981 25.1647L70.1099 26.6199Z"/>
<path d="M80.7952 14.493C83.0398 14.493 84.9421 15.3014 86.502 16.9183C88.0808 18.5353 88.8703 20.4756 88.8703 22.7393C88.8703 25.003 88.0904 26.9433 86.5305 28.5602C84.9897 30.1581 83.0779 30.957 80.7952 30.957C78.5125 30.957 76.5912 30.1581 75.0313 28.5602C73.4715 26.9433 72.6915 25.003 72.6915 22.7393C72.6915 20.4756 73.4715 18.5353 75.0313 16.9183C76.6102 15.3014 78.5315 14.493 80.7952 14.493ZM80.7952 28.7029C82.3741 28.7029 83.7151 28.1322 84.8185 26.9908C85.9408 25.8304 86.502 24.4418 86.502 22.8249C86.502 21.1889 85.9313 19.7812 84.7899 18.6018C83.6676 17.4034 82.3265 16.8042 80.7666 16.8042C79.2258 16.8042 77.8942 17.4034 76.7719 18.6018C75.6495 19.7812 75.0884 21.1889 75.0884 22.8249C75.0884 24.4608 75.6305 25.8495 76.7148 26.9908C77.7991 28.1322 79.1592 28.7029 80.7952 28.7029Z"/>
<path d="M105.742 30.4434H103.402V23.0246C103.402 21.3126 103.316 20.1522 103.145 19.5435C102.993 18.9157 102.755 18.3926 102.432 17.9741C102.127 17.5366 101.728 17.2132 101.233 17.0039C100.758 16.7947 100.168 16.6901 99.4642 16.6901C98.7794 16.6901 98.1041 16.8613 97.4383 17.2037C96.7725 17.5461 96.2018 18.0217 95.7262 18.6304C95.2507 19.2391 94.9178 19.8859 94.7275 20.5707C94.5563 21.2555 94.4707 22.6251 94.4707 24.6796V30.4434H92.1024V14.8924H94.4707V17.2322C96.0116 15.406 97.8377 14.493 99.9493 14.493C101.072 14.493 102.089 14.7878 103.002 15.3775C103.915 15.9482 104.6 16.7471 105.057 17.7744C105.513 18.7826 105.742 20.3424 105.742 22.4539V30.4434Z"/>
<path d="M122.844 14.8924L115.739 30.957H115.168L108.006 14.8924H110.488L115.425 26.1348L120.361 14.8924H122.844Z"/>
<path d="M140.64 23.0817H127.001C127.096 24.7937 127.667 26.1729 128.713 27.2191C129.779 28.2463 131.044 28.7599 132.508 28.7599C135 28.7599 136.903 27.533 138.215 25.0791L140.212 26.1063C139.318 27.7612 138.263 28.9882 137.045 29.7872C135.828 30.5671 134.372 30.957 132.679 30.957C130.34 30.957 128.409 30.1581 126.887 28.5602C125.365 26.9433 124.604 25.003 124.604 22.7393C124.604 20.4756 125.365 18.5353 126.887 16.9183C128.428 15.3014 130.33 14.493 132.594 14.493C134.858 14.493 136.75 15.2634 138.272 16.8042C139.794 18.326 140.583 20.4185 140.64 23.0817ZM138.015 20.9987C137.73 19.6671 137.083 18.6304 136.075 17.8885C135.067 17.1466 133.906 16.7757 132.594 16.7757C129.931 16.7757 128.162 18.1833 127.287 20.9987H138.015Z"/>
<path d="M150.439 15.1207L149.212 17.1181C148.888 16.9469 148.575 16.8613 148.27 16.8613C147.68 16.8613 147.148 17.1561 146.672 17.7458C146.197 18.3165 145.835 19.0774 145.588 20.0285C145.36 20.9607 145.246 22.6537 145.246 25.1076V30.4434H142.849V14.8924H145.246V16.5759C145.721 15.8721 146.197 15.349 146.672 15.0066C147.167 14.6642 147.719 14.493 148.327 14.493C148.955 14.493 149.659 14.7022 150.439 15.1207Z"/>
<path d="M159.62 16.9469H156.539V27.8468C156.539 28.2463 156.596 28.4936 156.71 28.5887C156.824 28.6648 157.109 28.7029 157.566 28.7029H158.936V30.7288C158.023 30.881 157.328 30.957 156.853 30.957C155.94 30.957 155.264 30.7383 154.827 30.3008C154.389 29.8442 154.17 29.1309 154.17 28.1607V16.9469H151.488V14.8924H154.17V9.04297H156.539V14.8924H159.62V16.9469Z"/>
<path d="M170.231 16.7186L168.719 18.288C167.597 17.2417 166.569 16.7186 165.637 16.7186C165.048 16.7186 164.553 16.9088 164.154 17.2893C163.754 17.6507 163.554 18.1073 163.554 18.6589C163.554 19.1915 163.773 19.6671 164.211 20.0856C164.667 20.4851 165.466 20.9892 166.607 21.5979C167.749 22.1876 168.624 22.8439 169.233 23.5668C169.86 24.2896 170.174 25.1742 170.174 26.2204C170.174 27.552 169.708 28.6743 168.776 29.5874C167.863 30.5005 166.731 30.957 165.381 30.957C163.497 30.957 161.928 30.1581 160.672 28.5602L162.156 26.9052C163.183 28.1036 164.23 28.7029 165.295 28.7029C166.018 28.7029 166.636 28.4651 167.15 27.9895C167.663 27.5139 167.92 26.9623 167.92 26.3345C167.92 25.6878 167.682 25.1551 167.207 24.7366C166.75 24.2991 165.951 23.795 164.81 23.2243C163.687 22.6537 162.831 22.0259 162.242 21.3411C161.671 20.6373 161.386 19.7242 161.386 18.6018C161.386 17.4605 161.795 16.4903 162.613 15.6914C163.45 14.8924 164.544 14.493 165.894 14.493C167.264 14.493 168.709 15.2348 170.231 16.7186Z"/>
<path d="M186.829 30.4434H184.461V23.0246C184.461 21.5789 184.413 20.5612 184.318 19.9715C184.242 19.3818 184.052 18.8301 183.748 18.3165C183.443 17.7839 183.025 17.3844 182.492 17.1181C181.979 16.8327 181.351 16.6901 180.609 16.6901C179.886 16.6901 179.192 16.8613 178.526 17.2037C177.86 17.5461 177.289 18.0217 176.814 18.6304C176.338 19.2391 176.005 19.8859 175.815 20.5707C175.644 21.2555 175.558 22.6251 175.558 24.6796V30.4434H173.19V9.04297H175.558V17.2322C177.099 15.406 178.925 14.493 181.037 14.493C182.159 14.493 183.177 14.7878 184.09 15.3775C185.003 15.9482 185.688 16.7471 186.145 17.7744C186.601 18.7826 186.829 20.3424 186.829 22.4539V30.4434Z"/>
<path d="M205.929 23.0817H192.289C192.384 24.7937 192.955 26.1729 194.001 27.2191C195.067 28.2463 196.332 28.7599 197.796 28.7599C200.288 28.7599 202.191 27.533 203.503 25.0791L205.501 26.1063C204.607 27.7612 203.551 28.9882 202.333 29.7872C201.116 30.5671 199.661 30.957 197.968 30.957C195.628 30.957 193.697 30.1581 192.175 28.5602C190.653 26.9433 189.893 25.003 189.893 22.7393C189.893 20.4756 190.653 18.5353 192.175 16.9183C193.716 15.3014 195.618 14.493 197.882 14.493C200.146 14.493 202.038 15.2634 203.56 16.8042C205.082 18.326 205.872 20.4185 205.929 23.0817ZM203.303 20.9987C203.018 19.6671 202.371 18.6304 201.363 17.8885C200.355 17.1466 199.195 16.7757 197.882 16.7757C195.219 16.7757 193.45 18.1833 192.575 20.9987H203.303Z"/>
<path d="M224.487 23.0817H210.848C210.943 24.7937 211.513 26.1729 212.56 27.2191C213.625 28.2463 214.89 28.7599 216.355 28.7599C218.847 28.7599 220.749 27.533 222.061 25.0791L224.059 26.1063C223.165 27.7612 222.109 28.9882 220.892 29.7872C219.674 30.5671 218.219 30.957 216.526 30.957C214.186 30.957 212.255 30.1581 210.733 28.5602C209.212 26.9433 208.451 25.003 208.451 22.7393C208.451 20.4756 209.212 18.5353 210.733 16.9183C212.274 15.3014 214.177 14.493 216.44 14.493C218.704 14.493 220.597 15.2634 222.118 16.8042C223.64 18.326 224.43 20.4185 224.487 23.0817ZM221.862 20.9987C221.576 19.6671 220.93 18.6304 219.921 17.8885C218.913 17.1466 217.753 16.7757 216.44 16.7757C213.777 16.7757 212.008 18.1833 211.133 20.9987H221.862Z"/>
<path d="M234.884 16.9469H231.803V27.8468C231.803 28.2463 231.86 28.4936 231.974 28.5887C232.088 28.6648 232.373 28.7029 232.83 28.7029H234.199V30.7288C233.286 30.881 232.592 30.957 232.117 30.957C231.203 30.957 230.528 30.7383 230.091 30.3008C229.653 29.8442 229.434 29.1309 229.434 28.1607V16.9469H226.752V14.8924H229.434V9.04297H231.803V14.8924H234.884V16.9469Z"/>
</mask>
<path d="M70.1099 26.6199C67.8652 29.5113 64.7835 30.957 60.8649 30.957C57.5549 30.957 54.8442 29.9108 52.7327 27.8183C50.6212 25.7258 49.5654 23.0817 49.5654 19.8859C49.5654 17.9075 50.0505 16.0813 51.0207 14.4074C52.0098 12.7334 53.37 11.4208 55.101 10.4697C56.8321 9.51853 58.6963 9.04297 60.6937 9.04297C62.7101 9.04297 64.5077 9.43293 66.0866 10.2129C67.6845 10.9738 69.0161 12.0961 70.0813 13.5799L68.1981 15.0351C66.2197 12.6382 63.7753 11.4398 60.8649 11.4398C58.487 11.4398 56.4326 12.2768 54.7015 13.9508C52.9895 15.6248 52.1335 17.6792 52.1335 20.1141C52.1335 22.53 52.9705 24.5559 54.6445 26.1919C56.3375 27.8088 58.5251 28.6173 61.2073 28.6173C63.8895 28.6173 66.2197 27.4664 68.1981 25.1647L70.1099 26.6199Z" fill="#1A73E8"/>
<path d="M80.7952 14.493C83.0398 14.493 84.9421 15.3014 86.502 16.9183C88.0808 18.5353 88.8703 20.4756 88.8703 22.7393C88.8703 25.003 88.0904 26.9433 86.5305 28.5602C84.9897 30.1581 83.0779 30.957 80.7952 30.957C78.5125 30.957 76.5912 30.1581 75.0313 28.5602C73.4715 26.9433 72.6915 25.003 72.6915 22.7393C72.6915 20.4756 73.4715 18.5353 75.0313 16.9183C76.6102 15.3014 78.5315 14.493 80.7952 14.493ZM80.7952 28.7029C82.3741 28.7029 83.7151 28.1322 84.8185 26.9908C85.9408 25.8304 86.502 24.4418 86.502 22.8249C86.502 21.1889 85.9313 19.7812 84.7899 18.6018C83.6676 17.4034 82.3265 16.8042 80.7666 16.8042C79.2258 16.8042 77.8942 17.4034 76.7719 18.6018C75.6495 19.7812 75.0884 21.1889 75.0884 22.8249C75.0884 24.4608 75.6305 25.8495 76.7148 26.9908C77.7991 28.1322 79.1592 28.7029 80.7952 28.7029Z" fill="#1A73E8"/>
<path d="M105.742 30.4434H103.402V23.0246C103.402 21.3126 103.316 20.1522 103.145 19.5435C102.993 18.9157 102.755 18.3926 102.432 17.9741C102.127 17.5366 101.728 17.2132 101.233 17.0039C100.758 16.7947 100.168 16.6901 99.4642 16.6901C98.7794 16.6901 98.1041 16.8613 97.4383 17.2037C96.7725 17.5461 96.2018 18.0217 95.7262 18.6304C95.2507 19.2391 94.9178 19.8859 94.7275 20.5707C94.5563 21.2555 94.4707 22.6251 94.4707 24.6796V30.4434H92.1024V14.8924H94.4707V17.2322C96.0116 15.406 97.8377 14.493 99.9493 14.493C101.072 14.493 102.089 14.7878 103.002 15.3775C103.915 15.9482 104.6 16.7471 105.057 17.7744C105.513 18.7826 105.742 20.3424 105.742 22.4539V30.4434Z" fill="#1A73E8"/>
<path d="M122.844 14.8924L115.739 30.957H115.168L108.006 14.8924H110.488L115.425 26.1348L120.361 14.8924H122.844Z" fill="#1A73E8"/>
<path d="M140.64 23.0817H127.001C127.096 24.7937 127.667 26.1729 128.713 27.2191C129.779 28.2463 131.044 28.7599 132.508 28.7599C135 28.7599 136.903 27.533 138.215 25.0791L140.212 26.1063C139.318 27.7612 138.263 28.9882 137.045 29.7872C135.828 30.5671 134.372 30.957 132.679 30.957C130.34 30.957 128.409 30.1581 126.887 28.5602C125.365 26.9433 124.604 25.003 124.604 22.7393C124.604 20.4756 125.365 18.5353 126.887 16.9183C128.428 15.3014 130.33 14.493 132.594 14.493C134.858 14.493 136.75 15.2634 138.272 16.8042C139.794 18.326 140.583 20.4185 140.64 23.0817ZM138.015 20.9987C137.73 19.6671 137.083 18.6304 136.075 17.8885C135.067 17.1466 133.906 16.7757 132.594 16.7757C129.931 16.7757 128.162 18.1833 127.287 20.9987H138.015Z" fill="#1A73E8"/>
<path d="M150.439 15.1207L149.212 17.1181C148.888 16.9469 148.575 16.8613 148.27 16.8613C147.68 16.8613 147.148 17.1561 146.672 17.7458C146.197 18.3165 145.835 19.0774 145.588 20.0285C145.36 20.9607 145.246 22.6537 145.246 25.1076V30.4434H142.849V14.8924H145.246V16.5759C145.721 15.8721 146.197 15.349 146.672 15.0066C147.167 14.6642 147.719 14.493 148.327 14.493C148.955 14.493 149.659 14.7022 150.439 15.1207Z" fill="#1A73E8"/>
<path d="M159.62 16.9469H156.539V27.8468C156.539 28.2463 156.596 28.4936 156.71 28.5887C156.824 28.6648 157.109 28.7029 157.566 28.7029H158.936V30.7288C158.023 30.881 157.328 30.957 156.853 30.957C155.94 30.957 155.264 30.7383 154.827 30.3008C154.389 29.8442 154.17 29.1309 154.17 28.1607V16.9469H151.488V14.8924H154.17V9.04297H156.539V14.8924H159.62V16.9469Z" fill="#1A73E8"/>
<path d="M170.231 16.7186L168.719 18.288C167.597 17.2417 166.569 16.7186 165.637 16.7186C165.048 16.7186 164.553 16.9088 164.154 17.2893C163.754 17.6507 163.554 18.1073 163.554 18.6589C163.554 19.1915 163.773 19.6671 164.211 20.0856C164.667 20.4851 165.466 20.9892 166.607 21.5979C167.749 22.1876 168.624 22.8439 169.233 23.5668C169.86 24.2896 170.174 25.1742 170.174 26.2204C170.174 27.552 169.708 28.6743 168.776 29.5874C167.863 30.5005 166.731 30.957 165.381 30.957C163.497 30.957 161.928 30.1581 160.672 28.5602L162.156 26.9052C163.183 28.1036 164.23 28.7029 165.295 28.7029C166.018 28.7029 166.636 28.4651 167.15 27.9895C167.663 27.5139 167.92 26.9623 167.92 26.3345C167.92 25.6878 167.682 25.1551 167.207 24.7366C166.75 24.2991 165.951 23.795 164.81 23.2243C163.687 22.6537 162.831 22.0259 162.242 21.3411C161.671 20.6373 161.386 19.7242 161.386 18.6018C161.386 17.4605 161.795 16.4903 162.613 15.6914C163.45 14.8924 164.544 14.493 165.894 14.493C167.264 14.493 168.709 15.2348 170.231 16.7186Z" fill="#1A73E8"/>
<path d="M186.829 30.4434H184.461V23.0246C184.461 21.5789 184.413 20.5612 184.318 19.9715C184.242 19.3818 184.052 18.8301 183.748 18.3165C183.443 17.7839 183.025 17.3844 182.492 17.1181C181.979 16.8327 181.351 16.6901 180.609 16.6901C179.886 16.6901 179.192 16.8613 178.526 17.2037C177.86 17.5461 177.289 18.0217 176.814 18.6304C176.338 19.2391 176.005 19.8859 175.815 20.5707C175.644 21.2555 175.558 22.6251 175.558 24.6796V30.4434H173.19V9.04297H175.558V17.2322C177.099 15.406 178.925 14.493 181.037 14.493C182.159 14.493 183.177 14.7878 184.09 15.3775C185.003 15.9482 185.688 16.7471 186.145 17.7744C186.601 18.7826 186.829 20.3424 186.829 22.4539V30.4434Z" fill="#1A73E8"/>
<path d="M205.929 23.0817H192.289C192.384 24.7937 192.955 26.1729 194.001 27.2191C195.067 28.2463 196.332 28.7599 197.796 28.7599C200.288 28.7599 202.191 27.533 203.503 25.0791L205.501 26.1063C204.607 27.7612 203.551 28.9882 202.333 29.7872C201.116 30.5671 199.661 30.957 197.968 30.957C195.628 30.957 193.697 30.1581 192.175 28.5602C190.653 26.9433 189.893 25.003 189.893 22.7393C189.893 20.4756 190.653 18.5353 192.175 16.9183C193.716 15.3014 195.618 14.493 197.882 14.493C200.146 14.493 202.038 15.2634 203.56 16.8042C205.082 18.326 205.872 20.4185 205.929 23.0817ZM203.303 20.9987C203.018 19.6671 202.371 18.6304 201.363 17.8885C200.355 17.1466 199.195 16.7757 197.882 16.7757C195.219 16.7757 193.45 18.1833 192.575 20.9987H203.303Z" fill="#1A73E8"/>
<path d="M224.487 23.0817H210.848C210.943 24.7937 211.513 26.1729 212.56 27.2191C213.625 28.2463 214.89 28.7599 216.355 28.7599C218.847 28.7599 220.749 27.533 222.061 25.0791L224.059 26.1063C223.165 27.7612 222.109 28.9882 220.892 29.7872C219.674 30.5671 218.219 30.957 216.526 30.957C214.186 30.957 212.255 30.1581 210.733 28.5602C209.212 26.9433 208.451 25.003 208.451 22.7393C208.451 20.4756 209.212 18.5353 210.733 16.9183C212.274 15.3014 214.177 14.493 216.44 14.493C218.704 14.493 220.597 15.2634 222.118 16.8042C223.64 18.326 224.43 20.4185 224.487 23.0817ZM221.862 20.9987C221.576 19.6671 220.93 18.6304 219.921 17.8885C218.913 17.1466 217.753 16.7757 216.44 16.7757C213.777 16.7757 212.008 18.1833 211.133 20.9987H221.862Z" fill="#1A73E8"/>
<path d="M234.884 16.9469H231.803V27.8468C231.803 28.2463 231.86 28.4936 231.974 28.5887C232.088 28.6648 232.373 28.7029 232.83 28.7029H234.199V30.7288C233.286 30.881 232.592 30.957 232.117 30.957C231.203 30.957 230.528 30.7383 230.091 30.3008C229.653 29.8442 229.434 29.1309 229.434 28.1607V16.9469H226.752V14.8924H229.434V9.04297H231.803V14.8924H234.884V16.9469Z" fill="#1A73E8"/>
<path d="M70.1099 26.6199C67.8652 29.5113 64.7835 30.957 60.8649 30.957C57.5549 30.957 54.8442 29.9108 52.7327 27.8183C50.6212 25.7258 49.5654 23.0817 49.5654 19.8859C49.5654 17.9075 50.0505 16.0813 51.0207 14.4074C52.0098 12.7334 53.37 11.4208 55.101 10.4697C56.8321 9.51853 58.6963 9.04297 60.6937 9.04297C62.7101 9.04297 64.5077 9.43293 66.0866 10.2129C67.6845 10.9738 69.0161 12.0961 70.0813 13.5799L68.1981 15.0351C66.2197 12.6382 63.7753 11.4398 60.8649 11.4398C58.487 11.4398 56.4326 12.2768 54.7015 13.9508C52.9895 15.6248 52.1335 17.6792 52.1335 20.1141C52.1335 22.53 52.9705 24.5559 54.6445 26.1919C56.3375 27.8088 58.5251 28.6173 61.2073 28.6173C63.8895 28.6173 66.2197 27.4664 68.1981 25.1647L70.1099 26.6199Z" stroke="#1A73E8" stroke-width="1.25" mask="url(#path-4-outside-1_130_5533)"/>
<path d="M80.7952 14.493C83.0398 14.493 84.9421 15.3014 86.502 16.9183C88.0808 18.5353 88.8703 20.4756 88.8703 22.7393C88.8703 25.003 88.0904 26.9433 86.5305 28.5602C84.9897 30.1581 83.0779 30.957 80.7952 30.957C78.5125 30.957 76.5912 30.1581 75.0313 28.5602C73.4715 26.9433 72.6915 25.003 72.6915 22.7393C72.6915 20.4756 73.4715 18.5353 75.0313 16.9183C76.6102 15.3014 78.5315 14.493 80.7952 14.493ZM80.7952 28.7029C82.3741 28.7029 83.7151 28.1322 84.8185 26.9908C85.9408 25.8304 86.502 24.4418 86.502 22.8249C86.502 21.1889 85.9313 19.7812 84.7899 18.6018C83.6676 17.4034 82.3265 16.8042 80.7666 16.8042C79.2258 16.8042 77.8942 17.4034 76.7719 18.6018C75.6495 19.7812 75.0884 21.1889 75.0884 22.8249C75.0884 24.4608 75.6305 25.8495 76.7148 26.9908C77.7991 28.1322 79.1592 28.7029 80.7952 28.7029Z" stroke="#1A73E8" stroke-width="1.25" mask="url(#path-4-outside-1_130_5533)"/>
<path d="M105.742 30.4434H103.402V23.0246C103.402 21.3126 103.316 20.1522 103.145 19.5435C102.993 18.9157 102.755 18.3926 102.432 17.9741C102.127 17.5366 101.728 17.2132 101.233 17.0039C100.758 16.7947 100.168 16.6901 99.4642 16.6901C98.7794 16.6901 98.1041 16.8613 97.4383 17.2037C96.7725 17.5461 96.2018 18.0217 95.7262 18.6304C95.2507 19.2391 94.9178 19.8859 94.7275 20.5707C94.5563 21.2555 94.4707 22.6251 94.4707 24.6796V30.4434H92.1024V14.8924H94.4707V17.2322C96.0116 15.406 97.8377 14.493 99.9493 14.493C101.072 14.493 102.089 14.7878 103.002 15.3775C103.915 15.9482 104.6 16.7471 105.057 17.7744C105.513 18.7826 105.742 20.3424 105.742 22.4539V30.4434Z" stroke="#1A73E8" stroke-width="1.25" mask="url(#path-4-outside-1_130_5533)"/>
<path d="M122.844 14.8924L115.739 30.957H115.168L108.006 14.8924H110.488L115.425 26.1348L120.361 14.8924H122.844Z" stroke="#1A73E8" stroke-width="1.25" mask="url(#path-4-outside-1_130_5533)"/>
<path d="M140.64 23.0817H127.001C127.096 24.7937 127.667 26.1729 128.713 27.2191C129.779 28.2463 131.044 28.7599 132.508 28.7599C135 28.7599 136.903 27.533 138.215 25.0791L140.212 26.1063C139.318 27.7612 138.263 28.9882 137.045 29.7872C135.828 30.5671 134.372 30.957 132.679 30.957C130.34 30.957 128.409 30.1581 126.887 28.5602C125.365 26.9433 124.604 25.003 124.604 22.7393C124.604 20.4756 125.365 18.5353 126.887 16.9183C128.428 15.3014 130.33 14.493 132.594 14.493C134.858 14.493 136.75 15.2634 138.272 16.8042C139.794 18.326 140.583 20.4185 140.64 23.0817ZM138.015 20.9987C137.73 19.6671 137.083 18.6304 136.075 17.8885C135.067 17.1466 133.906 16.7757 132.594 16.7757C129.931 16.7757 128.162 18.1833 127.287 20.9987H138.015Z" stroke="#1A73E8" stroke-width="1.25" mask="url(#path-4-outside-1_130_5533)"/>
<path d="M150.439 15.1207L149.212 17.1181C148.888 16.9469 148.575 16.8613 148.27 16.8613C147.68 16.8613 147.148 17.1561 146.672 17.7458C146.197 18.3165 145.835 19.0774 145.588 20.0285C145.36 20.9607 145.246 22.6537 145.246 25.1076V30.4434H142.849V14.8924H145.246V16.5759C145.721 15.8721 146.197 15.349 146.672 15.0066C147.167 14.6642 147.719 14.493 148.327 14.493C148.955 14.493 149.659 14.7022 150.439 15.1207Z" stroke="#1A73E8" stroke-width="1.25" mask="url(#path-4-outside-1_130_5533)"/>
<path d="M159.62 16.9469H156.539V27.8468C156.539 28.2463 156.596 28.4936 156.71 28.5887C156.824 28.6648 157.109 28.7029 157.566 28.7029H158.936V30.7288C158.023 30.881 157.328 30.957 156.853 30.957C155.94 30.957 155.264 30.7383 154.827 30.3008C154.389 29.8442 154.17 29.1309 154.17 28.1607V16.9469H151.488V14.8924H154.17V9.04297H156.539V14.8924H159.62V16.9469Z" stroke="#1A73E8" stroke-width="1.25" mask="url(#path-4-outside-1_130_5533)"/>
<path d="M170.231 16.7186L168.719 18.288C167.597 17.2417 166.569 16.7186 165.637 16.7186C165.048 16.7186 164.553 16.9088 164.154 17.2893C163.754 17.6507 163.554 18.1073 163.554 18.6589C163.554 19.1915 163.773 19.6671 164.211 20.0856C164.667 20.4851 165.466 20.9892 166.607 21.5979C167.749 22.1876 168.624 22.8439 169.233 23.5668C169.86 24.2896 170.174 25.1742 170.174 26.2204C170.174 27.552 169.708 28.6743 168.776 29.5874C167.863 30.5005 166.731 30.957 165.381 30.957C163.497 30.957 161.928 30.1581 160.672 28.5602L162.156 26.9052C163.183 28.1036 164.23 28.7029 165.295 28.7029C166.018 28.7029 166.636 28.4651 167.15 27.9895C167.663 27.5139 167.92 26.9623 167.92 26.3345C167.92 25.6878 167.682 25.1551 167.207 24.7366C166.75 24.2991 165.951 23.795 164.81 23.2243C163.687 22.6537 162.831 22.0259 162.242 21.3411C161.671 20.6373 161.386 19.7242 161.386 18.6018C161.386 17.4605 161.795 16.4903 162.613 15.6914C163.45 14.8924 164.544 14.493 165.894 14.493C167.264 14.493 168.709 15.2348 170.231 16.7186Z" stroke="#1A73E8" stroke-width="1.25" mask="url(#path-4-outside-1_130_5533)"/>
<path d="M186.829 30.4434H184.461V23.0246C184.461 21.5789 184.413 20.5612 184.318 19.9715C184.242 19.3818 184.052 18.8301 183.748 18.3165C183.443 17.7839 183.025 17.3844 182.492 17.1181C181.979 16.8327 181.351 16.6901 180.609 16.6901C179.886 16.6901 179.192 16.8613 178.526 17.2037C177.86 17.5461 177.289 18.0217 176.814 18.6304C176.338 19.2391 176.005 19.8859 175.815 20.5707C175.644 21.2555 175.558 22.6251 175.558 24.6796V30.4434H173.19V9.04297H175.558V17.2322C177.099 15.406 178.925 14.493 181.037 14.493C182.159 14.493 183.177 14.7878 184.09 15.3775C185.003 15.9482 185.688 16.7471 186.145 17.7744C186.601 18.7826 186.829 20.3424 186.829 22.4539V30.4434Z" stroke="#1A73E8" stroke-width="1.25" mask="url(#path-4-outside-1_130_5533)"/>
<path d="M205.929 23.0817H192.289C192.384 24.7937 192.955 26.1729 194.001 27.2191C195.067 28.2463 196.332 28.7599 197.796 28.7599C200.288 28.7599 202.191 27.533 203.503 25.0791L205.501 26.1063C204.607 27.7612 203.551 28.9882 202.333 29.7872C201.116 30.5671 199.661 30.957 197.968 30.957C195.628 30.957 193.697 30.1581 192.175 28.5602C190.653 26.9433 189.893 25.003 189.893 22.7393C189.893 20.4756 190.653 18.5353 192.175 16.9183C193.716 15.3014 195.618 14.493 197.882 14.493C200.146 14.493 202.038 15.2634 203.56 16.8042C205.082 18.326 205.872 20.4185 205.929 23.0817ZM203.303 20.9987C203.018 19.6671 202.371 18.6304 201.363 17.8885C200.355 17.1466 199.195 16.7757 197.882 16.7757C195.219 16.7757 193.45 18.1833 192.575 20.9987H203.303Z" stroke="#1A73E8" stroke-width="1.25" mask="url(#path-4-outside-1_130_5533)"/>
<path d="M224.487 23.0817H210.848C210.943 24.7937 211.513 26.1729 212.56 27.2191C213.625 28.2463 214.89 28.7599 216.355 28.7599C218.847 28.7599 220.749 27.533 222.061 25.0791L224.059 26.1063C223.165 27.7612 222.109 28.9882 220.892 29.7872C219.674 30.5671 218.219 30.957 216.526 30.957C214.186 30.957 212.255 30.1581 210.733 28.5602C209.212 26.9433 208.451 25.003 208.451 22.7393C208.451 20.4756 209.212 18.5353 210.733 16.9183C212.274 15.3014 214.177 14.493 216.44 14.493C218.704 14.493 220.597 15.2634 222.118 16.8042C223.64 18.326 224.43 20.4185 224.487 23.0817ZM221.862 20.9987C221.576 19.6671 220.93 18.6304 219.921 17.8885C218.913 17.1466 217.753 16.7757 216.44 16.7757C213.777 16.7757 212.008 18.1833 211.133 20.9987H221.862Z" stroke="#1A73E8" stroke-width="1.25" mask="url(#path-4-outside-1_130_5533)"/>
<path d="M234.884 16.9469H231.803V27.8468C231.803 28.2463 231.86 28.4936 231.974 28.5887C232.088 28.6648 232.373 28.7029 232.83 28.7029H234.199V30.7288C233.286 30.881 232.592 30.957 232.117 30.957C231.203 30.957 230.528 30.7383 230.091 30.3008C229.653 29.8442 229.434 29.1309 229.434 28.1607V16.9469H226.752V14.8924H229.434V9.04297H231.803V14.8924H234.884V16.9469Z" stroke="#1A73E8" stroke-width="1.25" mask="url(#path-4-outside-1_130_5533)"/>
</svg>
